<svg xmlns:rdf="http://www.w3.org/1999/02/22-rdf-syntax-ns#" xmlns="http://www.w3.org/2000/svg" height="49.401207" width="299.99997" version="1.1" xmlns:cc="http://creativecommons.org/ns#" xmlns:dc="http://purl.org/dc/elements/1.1/"><metadata><rdf:RDF><cc:Work rdf:about=""><dc:format>image/svg+xml</dc:format><dc:type rdf:resource="http://purl.org/dc/dcmitype/StillImage"/><dc:title/></cc:Work></rdf:RDF></metadata><g transform="matrix(0.03503913,0,0,0.03503913,1.9618701,61.928658)"><path fill="#000" d="m5622.58-602.62343c0-11.42819,0.1752-12.11652,3.4007-13.3428,1.8704-0.71107,14.7474-2.97262,28.6154-5.02556,28.4944-4.21797,40.2729-7.52408,50.8016-14.25935,15.7942-10.10327,21.9276-24.13877,25.2049-57.67692,1.9302-19.75237,2.1975-69.47621,2.1849-406.26714-0.015-256.5128-0.5073-389.3754-1.5002-400.6958-1.8607-21.2122-5.2968-33.7519-12.7511-46.5358-12.9679-22.2383-32.501-31.3174-75.1129-34.9128l-20.8433-1.7588v-12.3941-12.3943l4.5925-0.8182c2.5259-0.4501,78.6745-0.6377,169.2191-0.4174l164.6264,0.4011,0.4063,13.0712c0.2236,7.1892-0.095,13.0728-0.7065,13.0749-5.7131,0.019-47.4385,7.6101-54.6704,9.9465-22.7049,7.3354-39.6093,24.4048-47.5228,47.9871-7.3162,21.802-7.0108,2.0153-7.0166,454.6658v421.45803l56.8774-0.0199c55.4622-0.0199,104.98-2.28907,122.5867-5.61821,4.2746-0.8083,19.2182-4.71016,33.2079-8.67094,38.051-10.77307,63.8207-24.02869,93.2204-47.95196,11.3719-9.25356,41.6099-40.91102,47.5469-49.77895,2.1923-3.27459,6.8515-9.76921,10.3539-14.43245,8.3513-11.11928,20.4181-31.69534,39.9858-68.18223l6.2521-11.65804h14.6162,14.6163l-6.3864,18.01701c-28.8161,81.27887-59.8234,170.33502-59.8234,171.80409,0,0.98394-5.6342,17.97423-12.5203,37.75613l-12.5204,35.96701-288.4706,0.35666-288.4705,0.35667v-12.04967zm-450.7799,0c0-11.42466,0.1755-12.11312,3.4007-13.33942,1.8705-0.71107,14.7474-2.9726,28.6153-5.02556,28.4944-4.21796,40.2731-7.52406,50.8018-14.25934,15.7941-10.10325,21.9276-24.13876,25.2048-57.67692,1.9302-19.75236,2.1975-69.4762,2.1849-406.26713-0.015-256.5128-0.5073-389.3755-1.5002-400.6959-1.8607-21.2121-5.2968-33.7519-12.7512-46.5357-12.9677-22.2384-32.5007-31.3174-75.1128-34.9129l-20.8433-1.7587v-12.3941-12.3943l4.5925-0.8182c2.5259-0.45,78.6745-0.6378,169.2192-0.4173l164.6265,0.401,0.4062,13.0712c0.2236,7.189-0.095,13.0728-0.7066,13.0749-5.713,0.019-47.4384,7.6101-54.6703,9.9465-16.7842,5.4225-32.2508,17.8443-41.0952,33.0052-5.0248,8.6137-10.0647,25.3646-11.9505,39.7202-1.2598,9.589-1.5582,111.4032-1.2156,414.7366l0.4542,402.0279,3.0206,8.78653c11.1989,32.57627,36.2818,49.10533,83.1579,54.79858,10.0979,1.22643,19.4727,2.5669,20.8329,2.97882,2.1146,0.64043,2.4729,2.57736,2.4729,13.37163v12.62269h-169.5723-169.5724v-12.04628zm-1106.1771,10.35054c-0.9846-0.98464-1.6957-5.70413-1.6957-11.25507,0-7.67174,0.4883-9.81358,2.4729-10.84655,1.3601-0.70797,9.1498-2.07387,17.3105-3.03536,17.603-2.074,36.4543-9.26513,49.1663-18.75553,21.7009-16.20096,35.2578-42.00295,40.6426-77.35171,1.7496-11.485,2.0252-69.36373,1.9079-400.61489l-0.1371-387.1901-3.2821-14.2033c-1.8051-7.812-5.0509-17.9395-7.2127-22.5054-10.573-22.3304-39.1674-37.8329-76.8456-41.6619-23.2798-2.3656-22.6097-1.9085-22.6097-15.4194,0-8.8946,0.4576-11.3595,2.2353-12.0416,1.2295-0.4716,52.8959-0.8565,114.8146-0.8549h112.5794l127.059,367.0506c140.6575,406.33413,139.2538,402.3376,140.7338,400.70828,0.5775-0.63575,58.1156-172.53028,127.8622-381.98748,69.7466-209.4571,127.7072-382.2619,128.8015-384.0106l1.9896-3.1795h113.0599c98.7118,0,113.1623,0.2663,113.8657,2.0993,0.4431,1.1549,0.264,7.2942-0.3976,13.643l-1.2032,11.5436-22.6097,3.9094c-35.1661,6.0809-40.2228,8.1664-52.4632,21.6367-13.2472,14.5779-19.78,33.9886-23.1204,68.6948-0.9235,9.595-1.4158,151.6465-1.3931,402.0278,0.034,369.57134,0.1523,387.7047,2.6123,398.49516,6.8486,30.04187,21.5184,49.762,45.4925,61.15387,14.3217,6.80522,29.1881,10.29828,45.6301,10.72107,6.704,0.17255,12.8613,0.9855,13.6824,1.80666,0.8504,0.8504,1.311,5.69,1.0703,11.24462l-0.4226,9.75168-164.2733,0.35921-164.2732,0.35908v-11.88958-11.88956l9.5385-1.48178c33.2108-5.15952,40.3041-6.6225,49.9434-10.3011,5.9017-2.25206,12.7581-5.59109,15.237-7.41977,11.087-8.17975,20.2269-27.2045,25.1811-52.4144,2.3459-11.93775,2.5241-35.88419,2.9033-390.36976,0.3562-332.9802,0.1561-377.6518-1.6915-377.6518-1.1522,0-2.771,1.2629-3.5971,2.8063-1.4288,2.6697-24.3734,70.549-70.7003,209.1591-99.3675,297.30709-217.8251,649.42144-218.8076,650.40397-0.6643,0.66415-4.271,1.01022-8.0152,0.76887l-6.8076-0.43878-143.0929-411.67176c-78.7011-226.4193-143.8453-412.578-144.7646-413.6859-5.7571-6.9366-5.565-17.9817-5.565,320.0609,0,355.66385,0.1733,363.62061,8.7087,400.02059,8.625,36.78237,19.7547,55.69675,38.4833,65.39996,8.4221,4.36352,21.8544,8.44499,43.2466,13.14031,15.9062,3.49135,15.5442,3.11788,15.5442,16.03617,0,8.82172-0.4594,11.28023-2.2353,11.96163-1.2294,0.47183-60.8765,0.85775-132.549,0.85775-99.4711,0-130.7153-0.4013-132.0096-1.69572zm2171.6567-8.93743c0-11.42467,0.1756-12.11313,3.4008-13.33942,1.8705-0.71107,14.7475-2.97261,28.6153-5.02557,28.4944-4.21796,40.273-7.52406,50.8018-14.25933,15.7942-10.10326,21.9276-24.13877,25.2048-57.67692,1.9302-19.75237,2.1976-69.47621,2.1848-406.26714-0.014-256.5128-0.5071-389.3755-1.5002-400.6959-1.8606-21.212-5.2967-33.7519-12.7511-46.5357-12.9678-22.2383-32.5008-31.3173-75.1129-34.9129l-20.8433-1.7587v-12.3942-12.3941l4.5926-0.8182c2.5259-0.4501,78.6746-0.6379,169.219-0.4174l164.6266,0.401,0.4064,13.0712c0.2234,7.1891-0.095,13.0729-0.7066,13.0748-5.7131,0.019-47.4385,7.6103-54.6705,9.9466-22.7048,7.3352-39.6092,24.4047-47.5228,47.987-7.3162,21.802-7.0108,2.0153-7.0166,454.6659v421.45803l56.8774-0.0199c55.4623-0.0199,104.98-2.28908,122.5867-5.61821,4.2747-0.8083,19.2181-4.71708,33.208-8.68635,38.5442-10.93587,66.4762-25.28761,96.0464-49.34965,11.3721-9.25357,41.61-40.91103,47.5469-49.77896,2.1924-3.27459,6.8516-9.76921,10.354-14.43244,8.3514-11.11929,20.4182-31.69534,39.9857-68.18223l6.2522-11.65815h14.6592,14.6595l-2.1608,6.00568c-1.1884,3.30315-17.3886,49.2467-36.0003,102.09676-18.6117,52.85005-34.2208,97.04485-34.6868,98.21066-0.466,1.16582-4.5026,12.61195-8.9699,25.43586-4.4672,12.82391-9.1278,25.70081-10.3566,28.61533l-2.2339,5.29913h-288.3453-288.3451v-12.04627zm-3167.3505-381.8779c1.702-1.15263-123.3559-410.28608-126.3146-413.24478-1.055-1.0551-2.1448-1.1863-2.8971-0.3488-1.1252,1.2526-125.6624,404.54029-127.0716,411.49551l-0.6444,3.17948,127.6973-0.0211c70.2335-0.0141,128.3872-0.4888,129.2304-1.05982zm-1477.2366,396.46775c-0.9846-0.98464-1.6957-5.70413-1.6957-11.25508,0-7.67174,0.4884-9.81357,2.4729-10.84655,1.3601-0.70797,9.1499-2.07387,17.3106-3.03535,17.6029-2.074,36.4542-9.26515,49.1663-18.75555,21.7008-16.20095,35.2577-42.00294,40.6425-77.35171,1.7496-11.48499,2.0252-69.36371,1.9079-400.61479l-0.1372-387.1901-3.282-14.2035c-1.8051-7.8119-5.0508-17.9393-7.2127-22.5053-10.573-22.3304-39.1674-37.8329-76.8455-41.6618-23.2799-2.3657-22.6097-1.9085-22.6097-15.4194,0-8.8947,0.4576-11.3595,2.2352-12.0417,1.2294-0.4716,52.896-0.8565,114.8147-0.8548h112.5793l127.0591,367.0506c140.6574,406.33405,139.2537,402.33751,140.7338,400.7082,0.5774-0.63575,58.1155-172.5302,127.8621-381.9874,69.7465-209.4571,127.7072-382.262,128.8016-384.0106l1.9895-3.1795h113.06c98.7117,0,113.1623,0.2663,113.8656,2.0993,0.4432,1.1549,0.2642,7.2941-0.3976,13.643l-1.2032,11.5436-22.6097,3.9093c-35.1661,6.0809-40.2228,8.1665-52.4632,21.6368-13.2471,14.5778-19.7799,33.9885-23.1204,68.6947-0.9235,9.5951-1.4158,151.6464-1.393,402.0279,0.034,369.57126,0.1523,387.70461,2.6122,398.49507,6.8564,30.07606,21.558,49.82475,45.4924,61.11021,21.0691,9.93411,41.0184,12.96409,61.3212,9.31333,19.4621-3.4994,33.4031-11.8076,46.9836-27.99992,7.5886-9.04795,20.4198-31.3928,27.5278-47.93783,4.6356-10.78975,192.0758-585.30166,264.6814-811.25946,5.2445-16.3213,14.2805-44.3007,20.0799-62.1765,5.7996-17.8757,12.4714-38.5424,14.8263-45.9257,2.3548-7.3835,5.1745-14.1393,6.2661-15.0128,1.0912-0.8735,5.5713-1.5094,9.9555-1.4131l7.9712,0.1751,107.9047,322.894c112.3112,336.08047,137.3083,411.14635,158.582,476.21581,18.3395,56.09568,27.0778,82.27115,28.5402,85.49274,0.7057,1.55441,5.6681,15.54413,11.0274,31.08827,14.2087,41.21061,24.423,61.43593,36.0177,71.31874,9.968,8.49643,11.6804,9.44321,25.671,14.19208,6.9505,2.35918,15.3398,5.28062,18.6428,6.49194l6.0057,2.20231v11.86768c0,11.13736-0.1955,11.9147-3.1795,12.63582-1.7487,0.42251-67.4048,0.59364-145.9029,0.38012l-142.7234-0.38804-0.4128-10.96383c-0.3986-10.585-0.2899-11.01063,3.1483-12.31788,3.4076-1.29554,16.556-3.7795,25.5266-4.8225,2.3317-0.27104,5.1932-0.80703,6.3589-1.19125,1.166-0.38408,6.571-1.78856,12.0114-3.12126,14.538-3.56102,21.419-7.00037,24.7141-12.35321,7.5204-12.21669,10.0976-33.89878,6.5199-54.85382-1.3363-7.82705-16.2379-58.94364-35.7388-122.59307l-33.4469-109.16872-149.1052,0.35973-149.1052,0.35961-28.7287,93.26489c-32.3842,105.13204-36.5004,119.8864-38.7366,138.84741-3.7803,32.05469,6.4546,53.47789,31.3444,65.60769,8.292,4.04119,14.6712,5.84968,28.646,8.12096,9.888,1.60726,18.2823,2.92217,18.6541,2.92217,1.5284,0,0.5816,20.72555-1.0199,22.32701-1.3073,1.30726-64.4375,1.69573-275.555,1.69573h-273.8594v-11.88378-11.88362l9.5384-1.48178c33.2109-5.15953,40.3042-6.62251,49.9436-10.3011,5.9015-2.2522,12.758-5.59109,15.2369-7.41978,11.0869-8.17975,20.2268-27.2045,25.181-52.4144,2.346-11.93775,2.5241-35.88419,2.9033-390.36977,0.3562-332.9802,0.1562-377.6519-1.6914-377.6519-1.1524,0-2.7711,1.2629-3.5972,2.8065-1.4288,2.6697-24.3734,70.5489-70.7003,209.1591-99.3675,297.307-217.8251,649.42135-218.8076,650.40388-0.6642,0.66415-4.271,1.01022-8.0152,0.76887l-6.8075-0.43878-143.0929-411.67171c-78.7012-226.41936-143.8454-412.57806-144.7648-413.68586-5.7569-6.9368-5.5648-17.9818-5.5648,320.0609,0,355.66376,0.1733,363.62052,8.7086,400.0205,8.625,36.78237,19.7547,55.69675,38.4833,65.39996,8.4222,4.36353,21.8545,8.445,43.2466,13.14032,15.9062,3.49135,15.5442,3.11786,15.5442,16.03617,0,8.82172-0.4595,11.28023-2.2353,11.96163-1.2295,0.47183-60.8765,0.85775-132.549,0.85775-99.471,0-130.7151-0.40132-132.0096-1.69572zm5763.1782-399.29395c1.7019-1.15264-123.3559-410.28608-126.3146-413.24478-1.0551-1.0552-2.1448-1.1863-2.8971-0.3488-1.1253,1.2525-125.6624,404.54028-127.0716,411.49551l-0.6445,3.17948,127.6974-0.0211c70.2335-0.0141,128.3872-0.4888,129.2304-1.05983zm709.8208-5.15424c-139.4296-229.59684-254.0031-416.97784-254.6076-416.40224-0.6043,0.5755-0.893,152.6584-0.6411,337.9617,0.4205,309.44645,0.6549,338.18246,2.8739,352.45933,5.6669,36.4589,14.6394,57.80721,31.2021,74.23919,13.5553,13.44837,29.4161,20.35562,54.2291,23.61621l17.3974,2.28612-0.4028,12.81232-0.4029,12.81232h-273.4355-273.4355l-0.4128-10.96384c-0.3987-10.58498-0.29-11.01062,3.1484-12.31788,3.4075-1.29553,16.5558-3.77948,25.5265-4.82234,2.3317-0.27119,5.1932-0.80718,6.359-1.19126s6.5709-1.7887,12.0114-3.12139c14.5379-3.56103,21.4189-7.00039,24.714-12.35322,7.5204-12.21655,10.0977-33.89879,6.5199-54.85383-1.3362-7.82689-16.238-58.94363-35.7387-122.59305l-33.4471-109.16874-149.1052,0.35972-149.1052,0.35962-28.7287,93.26489c-32.3841,105.1322-36.5002,119.8864-38.7365,138.84756-3.7804,32.05469,6.4547,53.47776,31.3444,65.60769,8.2921,4.04105,14.6711,5.84954,28.646,8.12097,9.888,1.60712,18.2824,2.922,18.654,2.922,1.5284,0,0.5817,20.72556-1.0199,22.32703-1.2921,1.29215-30.0651,1.69572-120.8798,1.69572h-119.1839l0.4127-10.84711,0.4127-10.84712,15.5442-2.56252c22.981-3.78853,36.7536-11.5144,51.1707-28.70408,7.5885-9.04796,20.4197-31.39279,27.5278-47.93782,4.6356-10.78961,192.0758-585.30169,264.6814-811.25939,5.2444-16.3214,14.2804-44.3008,20.0799-62.1765,5.7996-17.8758,12.4713-38.5424,14.8263-45.9259,2.3548-7.3834,5.1744-14.1391,6.266-15.0127,1.0914-0.8734,5.5714-1.5093,9.9555-1.4131l7.9712,0.1752,107.9047,322.894c112.3112,336.08037,137.3084,411.14625,158.582,476.21574,17.8742,54.67224,27.0142,81.98116,29.0865,86.90583,0.9811,2.33162,5.3812,14.80862,9.7779,27.7265,13.6788,40.18936,31.0292,68.28101,49.6765,80.43015,13.1525,8.56921,22.9124,11.55283,40.1902,12.28679,13.6618,0.58022,15.4847,0.34013,23.0033-3.02926,4.491-2.01269,8.9423-3.66136,9.8916-3.6639,3.4173-0.0141,18.2747-11.07124,24.8825-18.5265,20.5405-23.17531,30.8451-51.22074,33.9789-92.47741,1.0146-13.36173,1.5086-140.45737,1.5086-388.29144v-368.4276l-11.0914-15.8564c-6.1005-8.7209-17.076-24.7378-24.3904-35.593-7.8637-11.6704-15.2805-21.0722-18.1476-23.0044-7.5168-5.0654-21.8942-8.7175-38.9289-9.8883l-15.5441-1.0684v-13.4245-13.4244l97.5041-0.3131,97.5041-0.313,146.2561,241.9167c80.4409,133.0541,161.4529,267.0512,180.027,297.7712,18.5738,30.7199,43.3045,71.7518,54.957,91.18196,20.4828,34.15465,22.996,38.28543,31.1462,51.19483,2.0748,3.28638,3.7726,6.26194,3.7726,6.61229,0,0.35033,2.5436,4.46621,5.6524,9.1468,3.1087,4.68046,5.6523,8.79364,5.6523,9.14035,0,2.34832,16.2169,26.35582,17.803,26.35582,1.6917,0,1.9825-39.82301,1.994-273.08225,0.015-180.2893-0.5133-282.6854-1.5371-301.3442-2.713-49.441-10.7039-81.9717-24.7958-100.9445-6.5169-8.7738-20.5267-18.504-32.3244-22.4506-9.5165-3.1833-37.342-7.6028-44.734-7.105-7.7318,0.5206-8.2573-0.4424-8.2573-15.1329v-13.341h134.9514,134.9513v13.8186,13.8187l-12.3647,1.697c-18.3157,2.5139-27.9992,5.3298-41.0092,11.9257-15.2029,7.7075-28.4232,21.1246-36.6218,37.1672-7.5654,14.8032-14.1422,39.561-15.9541,60.0569-0.9351,10.5799-1.4382,169.4812-1.4413,455.3723v439.12188h-11.095-11.0947l-253.5088-417.44874zm-4422.1625,421.00836c-56.3876-4.32072-96.939-18.63389-137.7775-48.63011-27.741-20.37597-72.6131-65.42964-91.6298-92.00051-23.3033-32.56029-47.7631-75.77157-59.5917-105.27617-2.4926-6.21766-6.0061-14.80225-7.808-19.07689-3.6637-8.69228-14.5943-41.38593-18.1893-54.40445-1.2877-4.66322-3.2268-11.6581-4.3092-15.54425-15.4447-55.45479-23.5043-142.12222-20.4342-219.73752,0.7841-19.8187,1.678-37.9418,1.987-40.2734,0.3089-2.3316,1.2444-11.2341,2.079-19.7835,0.8349-8.5493,1.8527-16.8159,2.2622-18.3704,0.4095-1.5543,1.6411-8.5491,2.7368-15.544,4.0404-25.7927,6.5492-39.3877,7.6709-41.5686,0.6329-1.2306,1.5784-4.7812,2.1008-7.89s1.4998-7.2421,2.1721-9.1852c0.6723-1.943,2.2766-8.1367,3.5656-13.7637,4.9739-21.7172,18.6261-59.8659,32.2626-90.1529,13.6806-30.3846,46.5139-84.6941,61.5836-101.8651,2.8128-3.2052,8.6117-10.1647,12.8863-15.4655,24.1657-29.9674,56.4059-58.2516,91.1452-79.9613,36.6754-22.9199,76.2315-36.8667,127.8858-45.0907,25.9465-4.1312,29.1647-4.3441,55.1111-3.6464,47.0783,1.2656,67.4304,6.0434,132.8316,31.1831,25.6923,9.8759,47.9591,16.1484,61.3401,17.2794l10.3484,0.8748,9.8968-6.4022c11.4713-7.4207,15.473-12.2239,23.5388-28.2532l5.8637-11.653,9.722-0.4228c5.3472-0.2323,10.2474,0.1035,10.8892,0.7444,0.642,0.6419,3.0613,67.6013,5.3766,148.7985,2.3151,81.1974,4.6105,157.3288,5.1007,169.1812l0.8917,21.5499h-12.1336c-10.2098,0-12.1337-0.3606-12.1337-2.2741,0-4.3915-7.2712-32.6026-14.953-58.0142-9.0742-30.0187-29.8884-79.3416-41.9433-99.3923-28.4487-47.3185-55.2251-75.7323-88.9895-94.4316-23.688-13.1188-54.6304-23.0325-81.2539-26.0332-39.8278-4.4889-88.7107,6.0886-126.1296,27.2927-23.9887,13.5934-56.01,41.0934-67.3552,57.8445-1.3158,1.943-4.443,5.8496-6.9489,8.6813-9.661,10.9162-26.1634,38.4414-38.4267,64.0936-25.2382,52.7924-43.3734,119.7794-52.029,192.1819-1.1149,9.3265-2.2987,19.1829-2.6305,21.9031s-1.3044,14.1664-2.1612,25.4358c-5.0246,66.0846-4.1858,136.2866,2.2205,185.82305,3.558,27.51292,12.3299,71.92054,17.5855,89.02561,9.7374,31.69193,16.0254,50.20019,19.6838,57.93721,0.7349,1.55441,3.0223,6.95953,5.0831,12.01137,4.7061,11.53743,23.9688,48.74599,28.1648,54.40448,1.7291,2.33161,5.7648,8.5227,8.9683,13.75797,14.5257,23.7387,47.1767,57.45536,77.2407,79.76175,10.0721,7.47305,31.4697,17.79676,48.7521,23.52152,27.1622,8.99751,45.8647,12.16852,78.0808,13.23894,18.1871,0.60424,20.5949,0.36105,37.4472-3.78132,32.4656-7.98008,65.062-25.43656,90.6155-48.52794,8.2615-7.46528,29.0747-30.68822,36.9428-41.21965,35.2232-47.14664,66.592-115.82144,83.4312-182.65427,3.5006-13.89273,5.2824-18.72936,6.9062-18.74637,1.2036-0.0141,8.1056,1.39304,15.3381,3.12339,11.8431,2.83337,13.078,3.43245,12.4265,6.02846-0.3977,1.58522-2.0854,11.78493-3.7502,22.66584-3.0741,20.09096-11.2171,54.36657-17.7935,74.89444-22.5067,70.25511-60.4478,133.94465-105.1147,176.45121-15.2427,14.50537-22.3182,20.07681-43.0545,33.90275-27.6931,18.46446-61.6525,33.16793-90.0852,39.00433-4.4689,0.91739-8.1254,2.1434-8.1254,2.72447s-13.1948,1.83943-29.3219,2.79652c-16.127,0.95695-32.1834,1.96945-35.6808,2.24995-3.4975,0.2805-17.1691-0.31823-30.3817-1.33071z"/><path fill="#cd0000" d="m2.7548422-996.78776c-0.3666-0.3666-0.6666-81.12724-0.6666-179.46794v-178.8013l12.6354998-15.782c6.9495-8.6802,14.037-17.4183,15.75-19.4182,1.7129-1.9999,5.5895-6.6874,8.6145-10.4167,23.2789-28.6992,78.009498-86.7363,107.499998-113.9946,7.7-7.1172,16.925-15.6701,20.5-19.0064,6.9448-6.4813,24.0701-20.8568,44.0131-36.9462,2.0452-1.65,6.9673-5.6373,10.938-8.8606,3.9707-3.2234,10.8935-8.5788,15.3841-11.901,4.4906-3.3223,9.8553-7.3461,11.9214-8.9419,2.0662-1.5957,13.5412-9.4428,25.5-17.4378,58.2965-38.9737,111.9774-65.9707,158.7434-79.8345,4.95-1.4674,10.35-3.0802,12-3.5839,10.011-3.0562,35.078-7.2152,50.7676-8.4232,30.175-2.3233,56.894,0.8934,79.718,9.5974,29.5696,11.2763,55.9399,36.8607,72.9681,70.7933,11.8313,23.5765,15.0258,34.6491,21.9533,76.0922,4.5266,27.0798,5.1038,32.478,7.0361,65.799,2.2006,37.9476,3.2304,45.5586,7.6933,56.8565,5.2267,13.2314,11.7838,20.0464,21.5397,22.3868,9.396,2.254,27.5808-1.9739,42.2758-9.8291,1.6764-0.8962,3.2789-1.6482,3.5609-1.6713,2.3375-0.191,27.4133-18.9874,43.4135-32.5419,4.8693-4.125,10.7895-9.075,13.156-11,10.0694-8.1908,30.2249-25.3665,33.9177-28.9031,4.2131-4.0349,13.2005-11.8946,38.9892-34.0969,8.6244-7.425,21.6418-18.675,28.9277-25s16.3283-13.975,20.0942-17,8.454-6.8751,10.418-8.5558,4.7501-3.9307,6.1914-5,5.7163-4.4552,9.5-7.5241c3.7837-3.069,9.6644-7.569,13.0681-10,3.4038-2.4311,11.2788-8.081,17.5-12.5555,13.73246-9.8767,44.18256-28.2271,55.78086-33.6157,29.5641-13.7355,74.8534-25.9323,107.0305-28.8242,39.5735-3.5566,80.0472,3.0649,113.2537,18.5285,9.0149,4.1981,25.3532,14.5838,34.9144,22.1939,7.1002,5.6514,22.3014,20.8979,28.2685,28.3529,1.981,2.475,5.0388,6.2711,6.795,8.4358,3.2333,3.9852,11.9231,17.323,16.6554,25.5642,4.7086,8.1999,16.2746,33.3658,19.3028,42,3.7955,10.8221,8.0531,25.4904,12.9165,44.5,3.5198,13.758,7.1165,37.2199,10.1177,66,0.5247,5.0316,1.1443,83.8798,1.4052,178.8211l0.4668,169.821-2.7209-0.321c-2.8829-0.3402-3.1554-0.8812-5.1992-10.3211-6.3466-29.3137-9.0013-39.5489-14.2653-55-15.0433-44.1558-37.6906-82.9567-61.1806-104.8184-25.4816-23.7154-45.6095-36.2253-73.7225-45.8202-12.4178-4.2382-42.2205-9.7083-57.0075-10.4633-19.6157-1.0016-48.1851,2.3955-72.6162,8.6345-10.5139,2.685-22.6639,6.2962-27,8.0251-4.3361,1.7288-10.8706,4.2257-14.5212,5.5487-16.7932,6.086-54.665,26.0262-75.36256,39.6798-10.1646,6.7053-26.2007,18.684-40.3986,30.1772-6.8193,5.5201-13.7943,11.1491-15.5,12.5087-10.2105,8.1388-38.9713,32.9649-41.1014,35.4784-0.55,0.649-5.3368,4.9757-10.6372,9.6148-8.5381,7.4727-16.7208,14.5446-50.8354,43.9347-4.7881,4.125-11.772,9.975-15.5198,13-3.7477,3.025-8.7012,7.075-11.0076,9-2.3065,1.925-7.2468,5.975-10.9784,9s-10.4381,8.568-14.9032,12.3178c-13.8381,11.6211-30.0108,21.4488-45.109,27.4114-8.079,3.1906-10.0421,3.569-19.0094,3.6644-17.4251,0.1854-25.4487-4.6415-31.4059-18.8936-6.0068-14.3708-9.0258-39.0845-9.1007-74.5-0.061-28.8394-2.3305-49.1211-8.4483-75.5-9.5885-41.3445-32.0108-81.0173-57.4383-101.6284-16.5036-13.3774-25.9518-18.7345-44.7091-25.3497-22.8234-8.0491-40.8706-10.29-64.3643-7.992-15.3482,1.5013-44.4762,6.5266-49.7916,8.5904-1.508,0.5855-12.6925,4.1374-24.8544,7.8932-40.6915,12.5663-68.6317,25.3387-122.3874,55.9479-15.5745,8.8682-34.8877,21.2338-55.5,35.5347-18.14,12.5855-18.0061,12.4866-44.0058,32.5039-1.786,1.375-6.5131,5.2-10.5049,8.5-3.9917,3.3-8.9369,7.35-10.9893,9-13.5934,10.928-19.7732,16.2517-38.5,33.1662-28.0551,25.34-70.695898,68.1596-98.421298,98.8338-28.521,31.5545-37.7538998,42.007-39.3182998,44.51204-1.2576,2.0137-2.8783,2.5368-4.0938,1.3213zm-1.6666,316.6003,0-180.0685,11.6926998-14.6815c6.431-8.0749,13.2935-16.5374,15.25-18.8056s6.0323-7.1807,9.0573-10.9167c23.0438-28.4601,77.977598-86.7189,107.499998-114.00674,7.7-7.1172,16.925-15.6701,20.5-19.0064,6.9448-6.4813,24.0701-20.8568,44.0131-36.9462,2.0452-1.65,6.9673-5.6373,10.938-8.8606,3.9707-3.2234,10.8935-8.5788,15.3841-11.901,4.4906-3.3223,9.8553-7.3461,11.9214-8.9419,2.0662-1.5957,13.5412-9.4428,25.5-17.4378,58.2965-38.9737,111.9774-65.9707,158.7434-79.8345,4.95-1.4674,10.35-3.0802,12-3.5839,10.011-3.0562,35.078-7.2152,50.7676-8.4232,30.175-2.3233,56.894,0.8934,79.718,9.5974,29.5696,11.2763,55.9399,36.8607,72.9681,70.7933,11.8313,23.5765,15.0258,34.6491,21.9533,76.0922,4.5266,27.0798,5.1038,32.478,7.0361,65.79904,2.2006,37.9476,3.2304,45.5586,7.6933,56.8565,5.2267,13.2314,11.7838,20.0464,21.5397,22.3868,9.396,2.254,27.5808-1.9739,42.2758-9.8291,1.6764-0.8962,3.2789-1.6482,3.5609-1.6713,2.3375-0.191,27.4133-18.9874,43.4135-32.5419,4.8693-4.125,10.7895-9.075,13.156-11,10.0694-8.1908,30.2249-25.3665,33.9177-28.9031,4.2131-4.03494,13.2005-11.89464,38.9892-34.09694,8.6244-7.425,21.6418-18.675,28.9277-25s16.3283-13.975,20.0942-17,8.454-6.8751,10.418-8.5558,4.7501-3.9307,6.1914-5,5.7163-4.4552,9.5-7.5241c3.7837-3.069,9.6644-7.569,13.0681-10,3.4038-2.4311,11.2788-8.081,17.5-12.5555,13.73246-9.8767,44.18256-28.2271,55.78086-33.6157,29.5641-13.7355,74.8534-25.9323,107.0305-28.8242,39.5735-3.5566,80.0472,3.0649,113.2537,18.5285,9.0149,4.1981,25.3532,14.5838,34.9144,22.1939,7.1002,5.6514,22.3014,20.8979,28.2685,28.3529,1.981,2.475,5.0388,6.2711,6.795,8.4358,3.2333,3.9852,11.9231,17.323,16.6554,25.5642,4.7086,8.1999,16.2746,33.3658,19.3028,42,3.7955,10.8221,8.0531,25.4904,12.9165,44.50004,3.5198,13.758,7.1165,37.2199,10.1177,66,0.5247,5.0316,1.1443,83.8798,1.4052,178.8211l0.4668,169.821-2.7209-0.321c-2.8829-0.3402-3.1554-0.8812-5.1992-10.3211-6.3466-29.3137-9.0013-39.5489-14.2653-55-15.0433-44.1558-37.6906-82.9567-61.1806-104.8184-25.4816-23.7154-45.6095-36.2253-73.7225-45.8202-12.4178-4.2382-42.2205-9.7083-57.0075-10.4633-19.6157-1.0016-48.1851,2.3955-72.6162,8.6345-10.5139,2.685-22.6639,6.2962-27,8.0251-4.3361,1.7288-10.8706,4.2257-14.5212,5.5487-16.7932,6.086-54.665,26.0262-75.36256,39.6798-10.1646,6.7053-26.2007,18.684-40.3986,30.1772-6.8193,5.5201-13.7943,11.149-15.5,12.5087-10.2105,8.1388-38.9713,32.9649-41.1014,35.4784-0.55,0.649-5.3368,4.9757-10.6372,9.6148-8.5381,7.4727-16.7208,14.5446-50.8354,43.9347-4.7881,4.125-11.772,9.975-15.5198,13-3.7477,3.025-8.7012,7.075-11.0076,9-2.3065,1.925-7.2468,5.975-10.9784,9s-10.4381,8.568-14.9032,12.3178c-13.8381,11.6211-30.0108,21.4488-45.109,27.4114-8.079,3.1906-10.0421,3.569-19.0094,3.6644-17.4251,0.1854-25.4487-4.6415-31.4059-18.8936-6.0068-14.3708-9.0258-39.0845-9.1007-74.5-0.061-28.8394-2.3305-49.1211-8.4483-75.5-9.5885-41.3445-32.0108-81.0173-57.4383-101.6284-16.5036-13.3774-25.9518-18.7345-44.7091-25.3497-22.8234-8.0491-40.8706-10.29-64.3643-7.992-15.3482,1.5013-44.4762,6.5266-49.7916,8.5904-1.508,0.5855-12.6925,4.1374-24.8544,7.8932-40.6915,12.5663-68.6317,25.3387-122.3874,55.9479-15.5745,8.8682-34.8877,21.2338-55.5,35.5347-18.14,12.5855-18.0061,12.4866-44.0058,32.5039-1.786,1.375-6.5131,5.2-10.5049,8.5-3.9917,3.3-8.9369,7.35-10.9893,9-13.5934,10.928-19.7732,16.2517-38.5,33.1662-28.0551,25.34-70.695898,68.1595-98.421298,98.8338-28.521,31.5544-37.7538998,42.007-39.3182998,44.512-3.8099,6.1006-3.7604,8.4422-3.7604-178.0804z"/></g></svg>